PathFileType	4	(X/Y/Z)	./resultDataOpenSim/trcMotMarkerGrf/sub09/qtm-04-09.trc
DataRate	CameraRate	NumFrames	NumMarkers	Units	OrigDataRate	OrigDataStartFrame	OrigNumFrames
250.000000	250.000000	10	24	m	250.000000	128	508
Frame#	Time	L.Toe.Tip			R.Toe.Tip			L.Ankle.Lat			R.Ankle.Lat			L.Ankle.Med			R.Ankle.Med			L.Heel			R.Heel			L.Knee.Lat			R.Knee.Lat			L.Knee.Med			R.Knee.Med			L.Thigh.Upper			R.Thigh.Upper			L.ASIS			R.ASIS			V.Sacral			L.Acromium			R.Acromium			C7			L.Elbow			R.Elbow			L.Wrist.Lat			R.Wrist.Lat
		X1	Y1	Z1	X2	Y2	Z2	X3	Y3	Z3	X4	Y4	Z4	X5	Y5	Z5	X6	Y6	Z6	X7	Y7	Z7	X8	Y8	Z8	X9	Y9	Z9	X10	Y10	Z10	X11	Y11	Z11	X12	Y12	Z12	X13	Y13	Z13	X14	Y14	Z14	X15	Y15	Z15	X16	Y16	Z16	X17	Y17	Z17	X18	Y18	Z18	X19	Y19	Z19	X20	Y20	Z20	X21	Y21	Z21	X22	Y22	Z22	X23	Y23	Z23	X24	Y24	Z24

128	0.508	-0.16690036	0.086904109	-0.0118596	-0.62705573	0.038605307	0.096622059	-0.31788479	0.097951418	-0.047427504	-0.77335479	0.056801539	0.12238234	-0.29699944	0.11605491	0.047741434	-0.7585723	0.093158368	0.031021638	-0.37893762	0.046717972	0.0021675631	-0.84135279	0.036265042	0.069955439	-0.3309364	0.51519018	-0.080723737	-0.60812199	0.48536028	0.18877276	-0.33212303	0.5106699	0.045004311	-0.62669425	0.47953895	0.060168539	-0.5379008	0.88094687	-0.12199819	-0.58606286	0.89165381	0.2516577	-0.47144061	0.96657216	-0.054682999	-0.47743419	0.97239114	0.18385609	-0.64126513	1.0259784	0.053565545	-0.47598682	1.4183406	-0.10949797	-0.49690261	1.4333409	0.21923072	-0.55278628	1.4757673	0.054705201	-0.63376627	1.0879358	-0.14949352	-0.59770874	1.0686908	0.31897443	-0.55398882	0.8441674	-0.1990218	-0.33301933	0.97426134	0.27994847
129	0.512	-0.14996138	0.088435547	-0.0099679558	-0.62700868	0.038565761	0.096744103	-0.30118172	0.096341885	-0.04666184	-0.77339788	0.056971134	0.12238835	-0.28098969	0.11532127	0.048513875	-0.75835866	0.093143642	0.030918263	-0.36122294	0.043994344	0.0026312435	-0.84133415	0.036387357	0.069807037	-0.32435275	0.51275279	-0.080694129	-0.60549178	0.48484414	0.18937083	-0.325956	0.50862265	0.044756038	-0.62409524	0.47893307	0.060201171	-0.53144901	0.87901906	-0.12185892	-0.58034519	0.89035895	0.25186949	-0.46493371	0.96487532	-0.054560986	-0.47127725	0.97112143	0.18400109	-0.63498517	1.0242105	0.05334055	-0.47006061	1.4169201	-0.10956547	-0.4910734	1.4317852	0.21918611	-0.54691098	1.4742842	0.054730632	-0.62882468	1.0871621	-0.14958002	-0.59091204	1.0667388	0.31911443	-0.55063441	0.84308135	-0.19988547	-0.32516949	0.97528766	0.27951544
130	0.516	-0.13336032	0.090044088	-0.008168482	-0.62695066	0.038542379	0.096884804	-0.28478194	0.094834573	-0.045891609	-0.77346928	0.057097738	0.12239098	-0.26517945	0.1146778	0.049249508	-0.75815594	0.0931411	0.030838323	-0.34374026	0.041430492	0.0032118626	-0.84130732	0.036536875	0.069648418	-0.31787119	0.51048061	-0.080831259	-0.60308909	0.48427918	0.18983322	-0.31971857	0.50639783	0.044612048	-0.62150543	0.47825787	0.060129278	-0.52500785	0.87701312	-0.12167165	-0.57469641	0.88876138	0.25232303	-0.45840378	0.96311603	-0.054437375	-0.46505491	0.96977506	0.184147	-0.62867239	1.0223475	0.053128766	-0.46413247	1.4154217	-0.10963208	-0.48524001	1.4301565	0.21914677	-0.54102489	1.4727182	0.05476653	-0.62382836	1.0862966	-0.14969487	-0.58410986	1.0647223	0.31924386	-0.54725429	0.84192236	-0.20077275	-0.31735266	0.97619174	0.27909465
131	0.52	-0.1171219	0.091741351	-0.0065104233	-0.62690558	0.03852129	0.097004101	-0.2686695	0.09343896	-0.045113053	-0.77351181	0.057203731	0.12238972	-0.24959871	0.11414301	0.049982996	-0.7579579	0.093155502	0.030776025	-0.32651762	0.039031213	0.0039095098	-0.84127445	0.036718449	0.069477331	-0.31146018	0.50829913	-0.081059754	-0.60090272	0.48356795	0.19007529	-0.31326419	0.50404358	0.044617991	-0.61893916	0.47752028	0.059970656	-0.51853677	0.87493366	-0.12146783	-0.56904867	0.88695621	0.2528736	-0.45184847	0.96129699	-0.054322389	-0.45878739	0.96836266	0.18430072	-0.62233248	1.0203927	0.052948754	-0.45820042	1.4138501	-0.10969496	-0.47940839	1.4284603	0.21911229	-0.53514503	1.4710832	0.054821682	-0.61878493	1.0853397	-0.14983109	-0.57729973	1.0626322	0.3193451	-0.54390358	0.84068279	-0.20171754	-0.30957464	0.9769807	0.27868982
132	0.524	-0.10124595	0.09355068	-0.0050081023	-0.6268892	0.038492375	0.097073714	-0.25284459	0.09215863	-0.044337654	-0.77347756	0.057321742	0.12239335	-0.23427516	0.11371266	0.050730408	-0.75773864	0.093188616	0.030712719	-0.30956809	0.036778437	0.004681483	-0.84123833	0.03693424	0.069297075	-0.30505871	0.50602758	-0.081229482	-0.59883004	0.48264531	0.19010621	-0.30659607	0.50159248	0.044750185	-0.61628018	0.47676353	0.059861414	-0.51199001	0.87278637	-0.12126945	-0.56327737	0.88517413	0.25322103	-0.44525976	0.9594252	-0.054217346	-0.45250071	0.96689263	0.18447094	-0.61597687	1.0183655	0.052815966	-0.45226413	1.412208	-0.10976383	-0.47356887	1.4266962	0.21907858	-0.52924236	1.4693824	0.054853816	-0.61370059	1.084292	-0.14998663	-0.57049023	1.06047	0.31942235	-0.54055816	0.8393723	-0.2027154	-0.30185324	0.97765753	0.27829611
133	0.528	-0.085731922	0.095488957	-0.0036613209	-0.62689469	0.038453664	0.097104724	-0.23731379	0.090990016	-0.043583934	-0.77334888	0.057481053	0.12240902	-0.2192385	0.11335093	0.051486843	-0.75748687	0.093240609	0.030639994	-0.29289836	0.034647807	0.0054836883	-0.84120299	0.037185651	0.069116791	-0.29863894	0.50358107	-0.081274493	-0.59665107	0.48155552	0.1900108	-0.29984814	0.49906069	0.044931643	-0.61341117	0.47601448	0.059907578	-0.5053775	0.87057094	-0.12107435	-0.55734334	0.8835769	0.25320513	-0.4386278	0.957508	-0.054121951	-0.44622462	0.96535777	0.18466951	-0.60962298	1.0163023	0.052730264	-0.44632096	1.4104957	-0.10984735	-0.46771003	1.4248651	0.21904111	-0.52325187	1.4675987	0.054783782	-0.60857734	1.0831546	-0.15016472	-0.56368688	1.0582383	0.31947939	-0.53714652	0.83800453	-0.20373408	-0.29420447	0.97821643	0.27790257
134	0.532	-0.070591377	0.097540439	-0.0024705754	-0.62690151	0.038408792	0.097134041	-0.22207899	0.08993118	-0.042864879	-0.77315802	0.057680708	0.12243096	-0.20452693	0.11299984	0.05221013	-0.75721529	0.093311761	0.030561866	-0.27651987	0.032620378	0.0062668178	-0.84117112	0.037474316	0.068939351	-0.2922067	0.50095912	-0.081192305	-0.5941815	0.4804167	0.18989721	-0.29314703	0.49645705	0.045111266	-0.61032905	0.47527087	0.06008433	-0.4987517	0.8682833	-0.12086744	-0.55130161	0.88214248	0.25290053	-0.43194595	0.95554716	-0.054039365	-0.43998053	0.96373967	0.18490026	-0.60327107	1.0142171	0.052640583	-0.44036699	1.4087141	-0.10994594	-0.46183367	1.4229724	0.21899639	-0.51716747	1.4657254	0.054600838	-0.6034166	1.0819307	-0.15036463	-0.55688442	1.0559373	0.31950796	-0.5336328	0.83657185	-0.2047487	-0.28662861	0.97865203	0.27750454
135	0.536	-0.055836629	0.099654349	-0.0014332722	-0.62689719	0.038362516	0.097185882	-0.2071368	0.088983686	-0.042190487	-0.77297864	0.057891663	0.12243892	-0.19017544	0.11260075	0.052833691	-0.75694002	0.093400245	0.030477625	-0.26045262	0.030687851	0.0069713593	-0.84113737	0.037800829	0.06875086	-0.28576841	0.49820425	-0.081012932	-0.59139777	0.47931948	0.18984133	-0.28653341	0.4937929	0.045297831	-0.60712591	0.47451839	0.060309183	-0.49215215	0.86592354	-0.12064079	-0.54521193	0.88075435	0.25245837	-0.42521536	0.95353762	-0.053972731	-0.43375392	0.96202389	0.18514379	-0.59690274	1.0120653	0.052440722	-0.43440107	1.4068679	-0.1100539	-0.45594625	1.4210236	0.21894481	-0.51107502	1.4637857	0.05439873	-0.59822504	1.080628	-0.15057625	-0.5500767	1.0535696	0.31949852	-0.53005768	0.83504659	-0.20576446	-0.2791144	0.97896113	0.27710649
136	0.54	-0.041469278	0.10176749	-0.00053597584	-0.62688492	0.038317821	0.097258022	-0.19248582	0.088143828	-0.041582762	-0.77286892	0.058095353	0.12241648	-0.1761942	0.11211967	0.053313561	-0.75667136	0.09349801	0.030375554	-0.24471724	0.028850044	0.007540146	-0.84108113	0.038164739	0.068518249	-0.27932417	0.49540619	-0.080812577	-0.58837985	0.47827352	0.18986414	-0.28000486	0.49108143	0.045517956	-0.60390921	0.47372523	0.060531581	-0.48556719	0.86350186	-0.12041082	-0.53908777	0.87931065	0.25197519	-0.41844273	0.95147366	-0.053921634	-0.42749928	0.96021139	0.18536616	-0.5905338	1.0097808	0.052064691	-0.42842446	1.4049613	-0.11016316	-0.45004798	1.4190208	0.21888855	-0.50505089	1.4618061	0.054265301	-0.59300987	1.0792535	-0.15078993	-0.54326903	1.0511473	0.31945361	-0.52647029	0.83342058	-0.2067919	-0.27165258	0.97913881	0.27671242
137	0.544	-0.027488272	0.10383189	0.00023116383	-0.62687216	0.038274282	0.097336863	-0.17814015	0.087393351	-0.041080239	-0.77282983	0.058303652	0.12236837	-0.1625651	0.11157387	0.053667077	-0.75641395	0.093593374	0.030242046	-0.22932885	0.027105214	0.0079305122	-0.84097142	0.038569516	0.06820218	-0.27288225	0.49264852	-0.080662552	-0.58520442	0.47723429	0.18994484	-0.27356131	0.4883318	0.045782306	-0.60072341	0.47285058	0.060732667	-0.47895225	0.86103383	-0.12020749	-0.53291843	0.87776269	0.25148501	-0.4116336	0.9493561	-0.053885272	-0.42118386	0.95831529	0.18554686	-0.58420387	1.0073544	0.051578289	-0.42243783	1.4029892	-0.11027124	-0.44413189	1.4169651	0.21882624	-0.49908924	1.4597895	0.054198688	-0.5877683	1.0778032	-0.15100925	-0.53647066	1.0486887	0.31938265	-0.52284989	0.83172054	-0.20781975	-0.26423442	0.97918614	0.27632449
